<mxfile host="app.diagrams.net" modified="2024-05-05T23:28:44.973Z" agent="Mozilla/5.0 (Windows NT 10.0; Win64; x64) AppleWebKit/537.36 (KHTML, like Gecko) Chrome/124.0.0.0 Safari/537.36" etag="jSFiMedosAbVEDYl_jAI" version="24.3.1" type="device">
  <diagram name="Page-1" id="eNU_1eGJNQEFH4e3_4bY">
    <mxGraphModel dx="2216" dy="703" grid="1" gridSize="10" guides="1" tooltips="1" connect="1" arrows="1" fold="1" page="1" pageScale="1" pageWidth="850" pageHeight="1100" math="0" shadow="0">
      <root>
        <mxCell id="0" />
        <mxCell id="1" parent="0" />
        <mxCell id="U_B2tpPy31zTX5jznJ0U-1" value="" style="rounded=0;whiteSpace=wrap;html=1;" vertex="1" parent="1">
          <mxGeometry x="120" y="150" width="750" height="350" as="geometry" />
        </mxCell>
        <mxCell id="U_B2tpPy31zTX5jznJ0U-2" value="&lt;font color=&quot;#cc0000&quot; style=&quot;font-size: 50px;&quot;&gt;PAGE CONTENT&lt;/font&gt;" style="text;html=1;align=center;verticalAlign=middle;whiteSpace=wrap;rounded=0;rotation=12;" vertex="1" parent="1">
          <mxGeometry x="215" y="240" width="560" height="140" as="geometry" />
        </mxCell>
        <mxCell id="U_B2tpPy31zTX5jznJ0U-3" value="" style="rounded=0;whiteSpace=wrap;html=1;fillColor=#000000;strokeColor=none;opacity=60;" vertex="1" parent="1">
          <mxGeometry x="120" y="150" width="750" height="350" as="geometry" />
        </mxCell>
        <mxCell id="U_B2tpPy31zTX5jznJ0U-4" value="" style="rounded=1;whiteSpace=wrap;html=1;strokeColor=none;" vertex="1" parent="1">
          <mxGeometry x="302.5" y="232.5" width="385" height="155" as="geometry" />
        </mxCell>
        <mxCell id="U_B2tpPy31zTX5jznJ0U-5" value="&lt;span style=&quot;color: rgb(0, 0, 0); font-size: 22px; font-style: normal; font-variant-ligatures: normal; font-variant-caps: normal; font-weight: 400; letter-spacing: normal; orphans: 2; text-align: left; text-indent: 0px; text-transform: none; widows: 2; word-spacing: 0px; -webkit-text-stroke-width: 0px; white-space: normal; background-color: rgb(255, 255, 255); text-decoration-thickness: initial; text-decoration-style: initial; text-decoration-color: initial; float: none; display: inline !important;&quot;&gt;&lt;font face=&quot;Comic Sans MS&quot;&gt;Hey there!&amp;nbsp;&lt;/font&gt;&lt;/span&gt;" style="text;whiteSpace=wrap;html=1;" vertex="1" parent="1">
          <mxGeometry x="310" y="240" width="180" height="60" as="geometry" />
        </mxCell>
        <mxCell id="U_B2tpPy31zTX5jznJ0U-7" value="&lt;span style=&quot;background-color: rgb(255, 255, 255);&quot;&gt;&lt;font face=&quot;Comic Sans MS&quot; style=&quot;font-size: 14px;&quot;&gt;We just wanted to let you know that this website uses&amp;nbsp;&lt;/font&gt;&lt;/span&gt;&lt;div style=&quot;text-wrap: nowrap;&quot;&gt;&lt;span style=&quot;text-wrap: wrap; background-color: rgb(255, 255, 255);&quot;&gt;&lt;font face=&quot;Comic Sans MS&quot; style=&quot;font-size: 14px;&quot;&gt;cookies to enhance your browsing experience&lt;/font&gt;&lt;/span&gt;&lt;/div&gt;" style="text;html=1;align=left;verticalAlign=middle;whiteSpace=wrap;rounded=0;" vertex="1" parent="1">
          <mxGeometry x="310" y="280" width="450" height="30" as="geometry" />
        </mxCell>
        <mxCell id="U_B2tpPy31zTX5jznJ0U-8" value="&lt;span style=&quot;color: rgb(255, 255, 255); background-color: rgb(5, 102, 141);&quot;&gt;&lt;font face=&quot;Comic Sans MS&quot; style=&quot;font-size: 17px;&quot;&gt;I&#39;m fine with that&lt;/font&gt;&lt;/span&gt;" style="rounded=1;whiteSpace=wrap;html=1;fillColor=#05668d;strokeColor=none;" vertex="1" parent="1">
          <mxGeometry x="402.5" y="330" width="185" height="40" as="geometry" />
        </mxCell>
        <mxCell id="U_B2tpPy31zTX5jznJ0U-9" value="" style="ellipse;whiteSpace=wrap;html=1;aspect=fixed;strokeColor=none;fillColor=#7A5736;" vertex="1" parent="1">
          <mxGeometry x="430" y="248" width="27.5" height="27.5" as="geometry" />
        </mxCell>
        <mxCell id="U_B2tpPy31zTX5jznJ0U-12" style="edgeStyle=orthogonalEdgeStyle;rounded=0;orthogonalLoop=1;jettySize=auto;html=1;strokeWidth=3;" edge="1" parent="1" source="U_B2tpPy31zTX5jznJ0U-11">
          <mxGeometry relative="1" as="geometry">
            <mxPoint x="442.41176470588243" y="253.17647058823536" as="targetPoint" />
          </mxGeometry>
        </mxCell>
        <mxCell id="U_B2tpPy31zTX5jznJ0U-11" value="&lt;font style=&quot;font-size: 15px;&quot;&gt;Cookie icon, to show users the popup is about cookies.&lt;/font&gt;" style="text;html=1;align=center;verticalAlign=middle;whiteSpace=wrap;rounded=0;" vertex="1" parent="1">
          <mxGeometry x="318.75" y="80" width="250" height="30" as="geometry" />
        </mxCell>
        <mxCell id="U_B2tpPy31zTX5jznJ0U-14" style="edgeStyle=orthogonalEdgeStyle;rounded=0;orthogonalLoop=1;jettySize=auto;html=1;strokeColor=default;strokeWidth=3;align=center;verticalAlign=middle;fontFamily=Helvetica;fontSize=11;fontColor=default;labelBackgroundColor=default;endArrow=classic;" edge="1" parent="1" source="U_B2tpPy31zTX5jznJ0U-13">
          <mxGeometry relative="1" as="geometry">
            <mxPoint x="305" y="263" as="targetPoint" />
          </mxGeometry>
        </mxCell>
        <mxCell id="U_B2tpPy31zTX5jznJ0U-13" value="&lt;font style=&quot;font-size: 15px;&quot;&gt;Greeting title, to welcome users will, see the popup when they first load the webpage&lt;/font&gt;" style="text;html=1;align=center;verticalAlign=middle;whiteSpace=wrap;rounded=0;" vertex="1" parent="1">
          <mxGeometry x="-160" y="248" width="250" height="30" as="geometry" />
        </mxCell>
        <mxCell id="U_B2tpPy31zTX5jznJ0U-16" style="edgeStyle=orthogonalEdgeStyle;rounded=0;orthogonalLoop=1;jettySize=auto;html=1;strokeColor=default;strokeWidth=3;align=center;verticalAlign=middle;fontFamily=Helvetica;fontSize=11;fontColor=default;labelBackgroundColor=default;endArrow=classic;" edge="1" parent="1" source="U_B2tpPy31zTX5jznJ0U-15">
          <mxGeometry relative="1" as="geometry">
            <mxPoint x="581" y="276" as="targetPoint" />
          </mxGeometry>
        </mxCell>
        <mxCell id="U_B2tpPy31zTX5jznJ0U-15" value="&lt;font style=&quot;font-size: 15px;&quot;&gt;White box to hold all content in the popup&amp;nbsp;&lt;/font&gt;" style="text;html=1;align=center;verticalAlign=middle;whiteSpace=wrap;rounded=0;" vertex="1" parent="1">
          <mxGeometry x="640" y="90" width="250" height="30" as="geometry" />
        </mxCell>
        <mxCell id="U_B2tpPy31zTX5jznJ0U-18" style="edgeStyle=orthogonalEdgeStyle;rounded=0;orthogonalLoop=1;jettySize=auto;html=1;strokeColor=default;strokeWidth=3;align=center;verticalAlign=middle;fontFamily=Helvetica;fontSize=11;fontColor=default;labelBackgroundColor=default;endArrow=classic;" edge="1" parent="1" source="U_B2tpPy31zTX5jznJ0U-17">
          <mxGeometry relative="1" as="geometry">
            <mxPoint x="813" y="274" as="targetPoint" />
          </mxGeometry>
        </mxCell>
        <mxCell id="U_B2tpPy31zTX5jznJ0U-17" value="&lt;font style=&quot;font-size: 15px;&quot;&gt;the page content will be darkened out so the popup will attract the user attention&amp;nbsp;&lt;/font&gt;" style="text;html=1;align=center;verticalAlign=middle;whiteSpace=wrap;rounded=0;" vertex="1" parent="1">
          <mxGeometry x="890" y="260" width="250" height="30" as="geometry" />
        </mxCell>
        <mxCell id="U_B2tpPy31zTX5jznJ0U-20" style="edgeStyle=orthogonalEdgeStyle;rounded=0;orthogonalLoop=1;jettySize=auto;html=1;strokeColor=default;strokeWidth=3;align=center;verticalAlign=middle;fontFamily=Helvetica;fontSize=11;fontColor=default;labelBackgroundColor=default;endArrow=classic;" edge="1" parent="1" source="U_B2tpPy31zTX5jznJ0U-19">
          <mxGeometry relative="1" as="geometry">
            <mxPoint x="562" y="369" as="targetPoint" />
          </mxGeometry>
        </mxCell>
        <mxCell id="U_B2tpPy31zTX5jznJ0U-19" value="&lt;font style=&quot;font-size: 15px;&quot;&gt;Large button to make it obvious to the user that they must click the button to continue.&amp;nbsp;&lt;/font&gt;" style="text;html=1;align=center;verticalAlign=middle;whiteSpace=wrap;rounded=0;" vertex="1" parent="1">
          <mxGeometry x="437.5" y="530" width="250" height="30" as="geometry" />
        </mxCell>
        <mxCell id="U_B2tpPy31zTX5jznJ0U-21" value="&lt;span style=&quot;font-size: 36px;&quot;&gt;&lt;b&gt;Cookie pop up&lt;/b&gt;&lt;/span&gt;" style="text;html=1;align=center;verticalAlign=middle;whiteSpace=wrap;rounded=0;fontFamily=Helvetica;fontSize=12;fontColor=default;" vertex="1" parent="1">
          <mxGeometry x="510" y="30" width="310" height="30" as="geometry" />
        </mxCell>
      </root>
    </mxGraphModel>
  </diagram>
</mxfile>
